<?xml version="1.0" encoding="UTF-8" standalone="no"?>
<svg
   viewBox="0 0 348 348"
   fill="none"
   version="1.1"
   id="svg2"
   sodipodi:docname="Clapping Music.svg"
   xml:space="preserve"
   inkscape:version="1.3.2 (091e20e, 2023-11-25, custom)"
   xmlns:inkscape="http://www.inkscape.org/namespaces/inkscape"
   xmlns:sodipodi="http://sodipodi.sourceforge.net/DTD/sodipodi-0.dtd"
   xmlns="http://www.w3.org/2000/svg"
   xmlns:svg="http://www.w3.org/2000/svg"><defs
     id="defs2"><linearGradient
       id="swatch3"
       inkscape:swatch="solid"><stop
         style="stop-color:#000000;stop-opacity:1;"
         offset="0"
         id="stop3" /></linearGradient></defs><sodipodi:namedview
     id="namedview2"
     pagecolor="#ffffff"
     bordercolor="#000000"
     borderopacity="0.25"
     inkscape:showpageshadow="2"
     inkscape:pageopacity="0.0"
     inkscape:pagecheckerboard="0"
     inkscape:deskcolor="#d1d1d1"
     inkscape:zoom="1.237069"
     inkscape:cx="67.902439"
     inkscape:cy="280.09756"
     inkscape:window-width="1920"
     inkscape:window-height="1057"
     inkscape:window-x="1912"
     inkscape:window-y="-8"
     inkscape:window-maximized="1"
     inkscape:current-layer="svg2" /><path
     d="M5.079 5.776h336.913v337.67H5.08z"
     stroke-width="2"
     stroke="#000"
     id="path1" /><path
     d="M282.734 40.554c0-8.376 6.966-15.165 15.56-15.165 4.126 0 8.084 1.597 11.001 4.441 2.918 2.844 4.558 6.702 4.558 10.724 0 8.376-6.966 15.165-15.56 15.165-8.593 0-15.559-6.79-15.559-15.165z"
     stroke-width="2"
     stroke="#000"
     id="path2" /><g
     id="g4"
     transform="translate(8.252233,0.39945602)"><rect
       style="display:inline;opacity:1;mix-blend-mode:normal;fill:none;fill-opacity:1;stroke:#000000;stroke-width:1.50047;stroke-opacity:1"
       id="rect2"
       width="85.634102"
       height="85.229927"
       x="23.886778"
       y="130.98558" /><g
       id="g1"
       transform="matrix(0.04511526,0,0,0.04511526,31.687263,134.80866)"><path
         transform="translate(956,269)"
         d="m 0,0 c 2.52,2.2 4.95,4.46 7.35,6.78 0.74,0.71 1.48,1.42 2.24,2.16 20.9,21.6 31.4,53.3 31.1,83.1 -0.84,26.9 -11.5,49.2 -23.4,72.8 0.55,-0.16 1.1,-0.32 1.66,-0.49 26.8,-5.86 58.7,3.2 81.3,17.5 18.7,12.6 33.7,29.4 43,50 4.95,-1.77 9.42,-4.33 14,-6.87 0.88,-0.49 1.76,-0.98 2.67,-1.48 7.1,-3.93 14.1,-7.97 21.2,-12 6.74,-3.86 13.6,-7.58 20.4,-11.2 7.1,-3.82 14.1,-7.7 21.1,-11.8 1.04,-0.61 1.04,-0.61 2.09,-1.24 0.66,-0.39 1.32,-0.78 2,-1.18 21.9,-13 43.5,-22.6 69.4,-22.4 1.14,0 2.27,0.01 3.44,0.01 29.1,0.41 53.7,13 74,33.5 17.1,18.4 26.4,43 26,68 -0.01,1.05 -0.02,2.09 -0.03,3.17 -0.02,2.55 -0.06,5.1 -0.1,7.64 0.6,-0.36 1.2,-0.71 1.81,-1.08 29.2,-17.3 59,-27.7 93.2,-19.5 15.2,4.07 29,11.4 41,21.5 1.07,0.85 1.07,0.85 2.16,1.72 20.6,17.1 31.7,43.2 34.8,69.3 2.12,25.8 -6.84,52.9 -23.2,72.9 -0.58,0.69 -1.17,1.37 -1.77,2.08 -0.61,0.75 -1.23,1.5 -1.86,2.27 -11.6,13.7 -27.8,23.6 -44.1,30.7 h -2 c 2.35,2.57 4.82,4.18 7.81,5.94 25,15.7 40.4,39.2 47.2,67.7 5.79,25.5 0.17,52.8 -13.3,75 -4.27,6.75 -9.2,12.7 -14.8,18.4 -0.9,1.01 -0.9,1.01 -1.81,2.04 -11,11.9 -29,22.6 -44.2,28 h -2 v 2 c 0.72,0.26 1.44,0.51 2.18,0.78 22.2,9.6 38.4,33.5 47,55.1 8.86,26 7.35,54.4 -4.24,79.3 -6.58,13.3 -15.1,25.6 -26.9,34.8 -0.78,0.62 -1.57,1.25 -2.38,1.89 -6.28,4.77 -12.9,8.66 -19.8,12.4 -4.71,2.59 -9.35,5.29 -14,7.99 -10.6,6.15 -21.2,12.1 -32,17.9 -6.74,3.63 -13.4,7.35 -20.1,11.2 -9.1,5.18 -18.3,10.2 -27.6,15.1 -7.96,4.24 -15.9,8.57 -23.7,13 -8.57,4.9 -17.2,9.61 -25.9,14.2 -7.8,4.16 -15.6,8.33 -23.3,12.7 -6.74,3.82 -13.5,7.56 -20.3,11.3 -0.63,0.35 -1.25,0.69 -1.9,1.05 -8.47,4.67 -17,9.3 -25.5,13.9 -8.68,4.68 -17.3,9.49 -25.8,14.4 -8.3,4.7 -16.7,9.21 -25.1,13.7 -7.12,3.82 -14.2,7.73 -21.2,11.7 -9.31,5.31 -18.7,10.4 -28.2,15.5 -6.77,3.63 -13.5,7.3 -20.2,11 -4.61,2.57 -9.23,5.13 -13.8,7.68 -11.5,6.35 -23.1,12.7 -34.5,19.2 -7.03,4 -14.1,7.88 -21.3,11.6 -5.84,3.06 -11.6,6.3 -17.3,9.57 -8.66,4.93 -17.4,9.69 -26.2,14.4 -9.59,5.1 -19.1,10.3 -28.5,15.7 -4.93,2.83 -9.88,5.49 -15,7.98 -14.8,6.87 -14.8,6.87 -23.3,20 -0.39,1.25 -0.79,2.49 -1.2,3.77 -1.16,2.87 -2.42,5.68 -3.69,8.5 -0.32,0.75 -0.65,1.49 -0.98,2.26 -13.2,29.8 -32,57.8 -54,81.7 -1.93,2.1 -3.79,4.24 -5.64,6.42 -3.35,3.85 -6.91,7.49 -10.5,11.1 -0.86,0.88 -0.86,0.88 -1.75,1.79 -1.44,1.44 -2.93,2.83 -4.44,4.21 h -2 v 2 c -1.88,1.74 -1.88,1.74 -4.56,3.88 -1.01,0.8 -2.01,1.6 -3.05,2.43 -0.55,0.43 -1.1,0.87 -1.66,1.32 -1.77,1.41 -3.52,2.84 -5.27,4.28 -8.48,6.95 -17.2,13.2 -26.5,19.1 -0.67,0.43 -1.35,0.86 -2.04,1.31 -31.9,20.4 -66.6,35.7 -104,42.7 -1.02,0.2 -2.05,0.39 -3.1,0.6 -35.4,6.53 -71.2,4.07 -107,-1.26 -2.15,-0.32 -4.31,-0.64 -6.47,-0.95 -19.2,-2.84 -38,-6.8 -56.8,-11.4 -1.22,-0.3 -2.44,-0.59 -3.7,-0.9 -55.2,-13.6 -110,-34.9 -160,-61.9 -2.05,-1.09 -4.11,-2.16 -6.17,-3.22 -34.8,-17.9 -68,-39.8 -98,-64.9 -0.64,-0.53 -1.28,-1.07 -1.94,-1.62 -6.08,-5.11 -12.1,-10.2 -17.6,-15.9 -1.63,-1.68 -1.63,-1.68 -4.44,-3.88 -3.02,-2.57 -5.47,-5.27 -8.03,-8.29 -1.37,-1.58 -2.78,-3.12 -4.21,-4.63 -20.8,-21.9 -37.5,-51 -49.9,-78.4 -2.11,-4.65 -4.34,-9.21 -6.65,-13.8 -4.11,-8.14 -7.88,-16.4 -11.5,-24.8 -0.32,-0.73 -0.64,-1.46 -0.97,-2.21 -6.31,-14.4 -12.1,-28.9 -17.7,-43.5 -0.71,-1.86 -1.43,-3.72 -2.15,-5.58 -7.74,-20.2 -14.9,-40.4 -21.7,-60.9 -2.39,-7.2 -4.81,-14.4 -7.29,-21.6 -18.6,-53.9 -35.5,-108 -52,-163 -5.52,-18.3 -11.4,-36.5 -17.5,-54.6 -0.37,-1.12 -0.74,-2.23 -1.13,-3.38 -1.78,-5.36 -3.59,-10.7 -5.48,-16 -4.64,-13.2 -7.98,-26.4 -10.4,-40.2 -0.38,-2.15 -0.79,-4.29 -1.2,-6.42 -6.48,-36.5 3.41,-77.7 24.4,-108 18.3,-25.3 45,-43.5 76,-48.5 31.4,-4.66 62.8,1.94 88.6,20.8 5.47,4.27 10.7,8.79 15.7,13.6 0.84,0.78 1.67,1.56 2.53,2.37 15.2,14.7 27.2,34 35.4,53.5 0.45,1.06 0.9,2.12 1.36,3.22 5.54,13.4 10.2,27.2 14.9,41 4.34,12.7 8.95,25.3 13.8,37.9 4.5,-8.35 8.91,-16.7 12.8,-25.3 2.98,-6.53 6.44,-12.6 10.2,-18.8 4.73,-7.72 8.96,-15.5 12.9,-23.7 1.76,-3.6 3.57,-7.19 5.38,-10.8 4.76,-9.46 9.41,-19 14,-28.5 5.95,-12.5 12.1,-24.9 18.2,-37.4 3.98,-8.12 7.93,-16.2 11.8,-24.4 2.83,-6.07 5.78,-12.1 8.79,-18.1 4.08,-8.1 8.03,-16.3 12,-24.4 0.83,-1.72 1.67,-3.43 2.5,-5.15 6.06,-12.4 12.1,-24.9 18.2,-37.3 5.69,-11.7 11.4,-23.5 17.1,-35.2 5.95,-12.2 11.9,-24.4 17.8,-36.7 5.26,-10.8 10.5,-21.7 15.8,-32.5 6.42,-13.2 12.8,-26.3 19.2,-39.5 0.34,-0.69 0.67,-1.37 1.01,-2.08 4.42,-9.11 8.8,-18.2 13.1,-27.4 2.66,-5.6 5.4,-11.2 8.19,-16.7 3.41,-6.78 6.66,-13.6 9.9,-20.5 2.58,-5.41 5.21,-10.8 7.9,-16.2 4.53,-9.03 8.97,-18.1 13.4,-27.2 1.44,-2.95 2.89,-5.9 4.33,-8.85 4.45,-9.09 8.88,-18.2 13.2,-27.3 1.05,-2.2 2.09,-4.39 3.14,-6.58 0.93,-1.97 1.85,-3.94 2.77,-5.91 6.29,-13.3 14.2,-25.2 24.4,-35.8 0.71,-0.79 1.42,-1.59 2.15,-2.41 17.9,-19.3 46.2,-32.4 72.5,-33.7 36.6,-1.21 65.8,9.09 93.4,32.9 7.71,7.27 14.2,16.4 20,25.2 0.29,-0.62 0.58,-1.25 0.88,-1.89 15.4,-32.9 15.4,-32.9 25.1,-44.1 0.83,-0.96 1.65,-1.91 2.5,-2.9 43.6,-49.5 117,-52.5 167,-10.9 z m -123,42.9 c -9.95,10.2 -15.5,23 -21.4,35.7 -2.48,5.28 -5.07,10.5 -7.68,15.7 -3.88,7.72 -7.67,15.5 -11.5,23.3 -1.2,2.47 -2.41,4.95 -3.61,7.42 -4.43,9.07 -8.8,18.2 -13.1,27.3 -2.29,4.86 -4.65,9.67 -7.07,14.5 -3.28,6.5 -6.42,13.1 -9.5,19.6 -2.27,4.84 -4.63,9.63 -7.02,14.4 -5.61,11.2 -11.1,22.4 -16.6,33.6 -0.56,1.13 -1.12,2.27 -1.69,3.44 -6.73,13.7 -13.4,27.5 -20.1,41.3 -4.94,10.3 -9.93,20.5 -14.9,30.7 -6.45,13.2 -12.9,26.4 -19.3,39.6 -0.36,0.73 -0.71,1.46 -1.07,2.2 -4.52,9.3 -9.02,18.6 -13.4,28 -2.26,4.8 -4.61,9.55 -6.99,14.3 -5.14,10.3 -10.2,20.6 -15.2,30.9 -0.49,1 -0.97,1.99 -1.47,3.02 -8.08,16.5 -16.1,33 -23.9,49.7 -3.8,8.12 -7.74,16.2 -11.8,24.2 -1.86,3.68 -3.7,7.36 -5.54,11 -0.68,1.36 -1.35,2.71 -2.03,4.06 -0.48,0.97 -0.97,1.94 -1.47,2.94 -4.41,-1.68 -8.62,-3.7 -12.9,-5.77 -0.75,-0.37 -1.5,-0.73 -2.28,-1.11 -2.39,-1.16 -4.78,-2.33 -7.17,-3.49 -1.6,-0.78 -3.19,-1.56 -4.79,-2.33 -1.54,-0.75 -3.09,-1.51 -4.64,-2.26 -1.06,-0.52 -1.06,-0.52 -2.14,-1.04 -4.72,-2.31 -9.42,-4.64 -14.1,-7 1.39,-4.51 3.22,-8.63 5.38,-12.8 3.45,-6.79 6.78,-13.6 10.1,-20.5 4.9,-10.2 9.85,-20.5 14.8,-30.7 0.73,-1.49 1.45,-2.98 2.17,-4.47 1.46,-3 2.93,-6.01 4.39,-9.02 15.2,-31.2 15.2,-31.2 30,-62.6 7.8,-16.9 15.9,-33.7 24,-50.4 3.54,-7.27 7.07,-14.5 10.6,-21.8 0.57,-1.19 1.14,-2.37 1.73,-3.59 3.8,-7.87 7.57,-15.7 11.3,-23.6 2.29,-4.85 4.66,-9.65 7.07,-14.4 5.09,-10.2 10.1,-20.4 15.1,-30.6 1.6,-3.28 3.21,-6.56 4.82,-9.83 5.41,-11 10.8,-22.1 16.1,-33.1 0.49,-1.02 0.98,-2.04 1.49,-3.09 3.85,-8.03 7.65,-16.1 11,-24.3 0.36,-0.88 0.72,-1.76 1.09,-2.67 4.99,-14.7 2.67,-31.3 -3.09,-45.3 -0.57,-1.41 -0.57,-1.41 -1.16,-2.85 -7.4,-16.2 -21.5,-26.9 -37.8,-33.2 -16.8,-5.3 -34.2,-3.7 -50,4 -20.2,11.7 -29.1,29.4 -38.6,50 -2.33,5.01 -4.72,10 -7.11,15 -0.46,0.97 -0.92,1.93 -1.4,2.93 -3.87,8.09 -7.87,16.1 -11.9,24.1 -5.83,11.6 -11.6,23.2 -17.2,34.9 -4.99,10.5 -10.2,20.9 -15.4,31.3 -4.96,9.88 -9.83,19.8 -14.6,29.8 -3.02,6.37 -6.15,12.7 -9.32,19 -3.55,7.05 -7,14.1 -10.4,21.2 -5.37,11.3 -11,22.5 -16.6,33.8 -5.97,11.9 -11.9,23.8 -17.6,35.8 -4,8.43 -8.19,16.8 -12.4,25.1 -4.52,9.01 -8.94,18 -13.2,27.2 -3.59,7.56 -7.34,15 -11.1,22.5 -5.88,11.7 -11.6,23.4 -17,35.3 -4.77,10.4 -9.76,20.6 -14.8,30.9 -0.42,0.85 -0.84,1.71 -1.26,2.58 -0.83,1.7 -1.66,3.39 -2.49,5.08 -0.4,0.82 -0.8,1.64 -1.21,2.48 -0.39,0.8 -0.79,1.61 -1.19,2.44 -2.88,5.89 -5.73,11.8 -8.54,17.7 -6.36,13.4 -12.9,26.6 -19.4,40 -4.78,9.77 -9.54,19.5 -14.2,29.3 -8.73,18.2 -18,36.1 -28,53.6 -2.2,3.84 -4.39,7.67 -6.59,11.5 -0.69,1.2 -1.38,2.4 -2.06,3.6 -5.9,10.3 -11.7,20.6 -17.4,31 -1.13,2.06 -2.28,4.11 -3.45,6.14 -1.52,2.66 -1.52,2.66 -2.57,5.24 -1.11,2.37 -1.93,3.82 -3.94,5.5 -4.46,1.19 -8.72,1.12 -13.3,1 -1.2,0.03 -2.4,0.06 -3.63,0.1 -6.07,-0.06 -10.2,-0.41 -14.6,-4.72 -3.02,-3.59 -5.6,-7.35 -7.79,-11.5 -0.37,-0.68 -0.74,-1.36 -1.12,-2.06 -18.8,-35.4 -31.6,-74.5 -44.5,-112 -6.75,-19.7 -15,-37.7 -29,-53.4 -0.66,-0.75 -1.32,-1.51 -2,-2.29 -11.5,-12.3 -28,-21.4 -45,-22.7 -19,-0.52 -34.7,6.47 -48.8,19.2 -19.4,20.8 -23.2,47.8 -22.4,75.1 0.73,17 6.58,32.9 12.1,48.9 7.06,20.4 13.6,40.9 19.8,61.6 2.07,6.87 4.16,13.7 6.24,20.6 0.47,1.52 0.93,3.05 1.39,4.58 5.6,18.4 11.3,36.9 17.1,55.3 1.23,3.92 2.45,7.85 3.67,11.8 8.96,28.8 18.4,57.5 28.6,85.9 2.27,6.33 4.48,12.7 6.66,19 18.4,53.8 39.4,109 67.6,158 0.52,0.92 1.03,1.83 1.56,2.77 10.5,18.5 21.8,35.6 37.4,50.2 2.31,2.29 4.6,4.58 6.85,6.92 4.84,4.99 9.99,9.42 15.4,13.7 1.23,0.97 2.45,1.94 3.67,2.92 22.9,18.2 47.3,33.8 72.8,48.2 2.88,1.64 5.72,3.33 8.56,5.03 6.3,3.69 12.8,6.89 19.4,10.1 2.49,1.23 4.96,2.49 7.43,3.75 71.3,36.4 154,63.7 235,65.4 0.67,0.02 1.33,0.04 2.02,0.06 56.3,1.65 111,-19.1 154,-55.1 0.56,-0.46 1.11,-0.91 1.68,-1.39 14.6,-11.9 14.6,-11.9 27.5,-25.5 2.06,-2.42 4.23,-4.72 6.41,-7.04 22.7,-25 38.2,-54.7 52.4,-85.1 1.19,-2.53 2.38,-5.06 3.58,-7.59 0.69,-1.47 1.39,-2.94 2.08,-4.42 2.24,-4.76 4.57,-9.47 6.94,-14.2 5.14,-10.2 10.2,-20.6 15.2,-30.9 0.49,-1 0.98,-1.99 1.48,-3.01 8.07,-16.5 16.1,-33.1 23.9,-49.7 4.13,-8.82 8.44,-17.5 12.8,-26.2 8.98,-17.8 17.7,-35.8 26.2,-53.8 4.42,-9.43 9.04,-18.7 13.7,-28 7.42,-14.7 14.5,-29.5 21.6,-44.4 0.38,-0.82 0.77,-1.64 1.17,-2.48 0.68,-1.45 1.37,-2.91 2.05,-4.37 2.22,-4.72 4.54,-9.4 6.88,-14.1 5.15,-10.3 10.2,-20.6 15.2,-30.9 0.49,-1 0.98,-1.99 1.48,-3.01 8.07,-16.5 16.1,-33.1 23.9,-49.7 4.13,-8.82 8.44,-17.5 12.8,-26.2 9.68,-19.2 19,-38.5 28.2,-58 2.48,-5.27 5.07,-10.5 7.7,-15.7 3.25,-6.46 6.34,-13 9.43,-19.5 2.52,-5.32 5.11,-10.6 7.77,-15.8 3.41,-6.72 6.52,-13.6 9.58,-20.4 4.83,-10.8 9.84,-21.5 15.2,-32.1 5.23,-10.4 10.3,-20.9 15.2,-31.4 0.37,-0.79 0.74,-1.58 1.13,-2.39 9.09,-19.6 12.4,-37.9 4.87,-58.6 -6.58,-16.4 -18.9,-29.4 -35,-36.8 -15.8,-6.39 -34.2,-6.46 -50,0 -27.6,12.8 -37.3,37.8 -49.6,63.7 -2.54,5.36 -5.1,10.7 -7.66,16 -0.5,1.06 -1.01,2.12 -1.54,3.22 -2.71,5.64 -5.45,11.3 -8.27,16.8 -3.12,6.19 -6.14,12.4 -9.12,18.7 -5.81,12.1 -11.7,24.2 -17.6,36.3 -6.48,13.2 -13,26.5 -19.4,39.8 -6.19,12.8 -12.4,25.6 -18.6,38.3 -0.43,0.9 -0.87,1.79 -1.32,2.71 -1.24,2.55 -2.48,5.09 -3.73,7.64 -0.36,0.75 -0.73,1.5 -1.1,2.28 -0.35,0.71 -0.7,1.43 -1.06,2.16 -0.34,0.69 -0.67,1.38 -1.01,2.08 -0.71,1.44 -1.44,2.86 -2.18,4.28 -0.55,1.06 -0.55,1.06 -1.11,2.14 -0.5,0.95 -0.5,0.95 -1.01,1.91 -0.92,1.89 -0.92,1.89 -0.73,4.74 -2.34,-1.12 -4.67,-2.23 -7.01,-3.35 l -6.15,-2.94 c -5.48,-2.62 -11,-5.24 -16.4,-7.89 -1.04,-0.5 -2.09,-1.01 -3.16,-1.53 -2.03,-0.97 -4.05,-1.95 -6.07,-2.93 -0.91,-0.44 -1.83,-0.89 -2.77,-1.34 -1.21,-0.59 -1.21,-0.59 -2.45,-1.18 -1.92,-0.97 -1.92,-0.97 -3.97,-0.84 2.77,-7.2 5.89,-14.2 9.25,-21.1 0.49,-1.01 0.97,-2.02 1.47,-3.05 3.08,-6.4 6.23,-12.8 9.43,-19.1 2.37,-4.7 4.63,-9.45 6.85,-14.2 2.53,-5.42 5.12,-10.8 7.81,-16.1 3.33,-6.58 6.52,-13.2 9.69,-19.9 4.39,-9.22 8.9,-18.4 13.5,-27.5 9,-17.8 17.7,-35.8 26.2,-53.9 2.77,-5.92 5.65,-11.8 8.6,-17.6 3.44,-6.84 6.73,-13.8 10,-20.7 2.6,-5.46 5.26,-10.9 7.97,-16.3 4.61,-9.19 9.12,-18.4 13.6,-27.7 0.41,-0.85 0.83,-1.71 1.26,-2.59 5.12,-10.5 10.2,-21 15.2,-31.6 2.68,-5.64 5.45,-11.2 8.27,-16.8 2.73,-5.43 5.32,-10.9 7.89,-16.4 1.98,-4.25 4.03,-8.46 6.16,-12.6 7.23,-14.3 14.4,-29.3 12.8,-45.7 -0.08,-0.88 -0.16,-1.77 -0.24,-2.68 -1.55,-12 -6.24,-23.8 -13.8,-33.3 -0.62,-0.81 -1.24,-1.62 -1.89,-2.45 -10.2,-12.3 -25.2,-20.6 -41.1,-22.6 -21.1,-0.95 -37.8,4.32 -54.1,17.8 -9.32,8.65 -14.4,21 -19.9,32.2 -0.39,0.82 -0.79,1.64 -1.2,2.48 -4.76,9.85 -9.45,19.7 -13.8,29.8 -2.38,5.49 -5.06,10.8 -7.74,16.2 -4.26,8.47 -8.4,17 -12.6,25.5 -0.62,1.27 -0.62,1.27 -1.25,2.57 -8.67,17.8 -17.3,35.6 -25.7,53.6 -2.48,5.29 -5.09,10.5 -7.72,15.7 -2.61,5.18 -5.1,10.4 -7.57,15.7 -4.03,8.57 -8.23,17 -12.5,25.5 -9.67,19.2 -19,38.5 -28.2,58 -2.48,5.28 -5.07,10.5 -7.7,15.7 -2.8,5.56 -5.48,11.2 -8.14,16.8 -3.24,6.84 -6.54,13.6 -9.95,20.4 -3.26,6.48 -6.37,13 -9.46,19.6 -2.78,5.88 -5.65,11.7 -8.59,17.5 -6.06,-1.72 -11.5,-4.65 -17.1,-7.5 -11.2,-5.68 -22.6,-11.1 -33.9,-16.5 4.67,-9.98 9.42,-19.9 14.4,-29.8 6.83,-13.6 13.4,-27.3 19.8,-41.1 4.11,-8.8 8.42,-17.5 12.8,-26.2 5.82,-11.5 11.6,-23.1 17.1,-34.8 5.22,-11 10.6,-21.8 15.9,-32.7 8.22,-16.8 16.4,-33.6 24.4,-50.5 4.74,-10.1 9.62,-20 14.6,-30 8.37,-16.6 16.5,-33.3 24.4,-50.1 3.75,-7.94 7.54,-15.8 11.5,-23.7 2.78,-5.53 5.44,-11.1 8.09,-16.7 3.24,-6.84 6.55,-13.6 9.96,-20.4 3.22,-6.39 6.27,-12.8 9.33,-19.3 2.84,-5.98 5.76,-11.9 8.74,-17.8 2.58,-5.12 5.04,-10.3 7.47,-15.5 3.05,-6.47 6.18,-12.9 9.4,-19.3 3.31,-6.57 6.46,-13.2 9.6,-19.9 0.4,-0.84 0.8,-1.68 1.2,-2.55 0.39,-0.81 0.77,-1.62 1.17,-2.46 1.06,-2.21 2.17,-4.39 3.29,-6.57 3.87,-7.7 6.27,-16.2 6.84,-24.8 0.05,-0.64 0.1,-1.29 0.16,-1.96 0.8,-18 -6.73,-34.7 -18.7,-47.8 -0.82,-0.74 -1.65,-1.48 -2.5,-2.25 -0.79,-0.79 -0.79,-0.79 -1.59,-1.6 -24.8,-23.8 -64.1,-20 -88.1,2.73 z m 362,190 c -6.25,3.56 -12.5,7 -18.9,10.3 -9.54,5 -19,10.2 -28.4,15.4 -1.23,0.67 -2.45,1.35 -3.68,2.02 -3.26,1.78 -6.51,3.57 -9.76,5.36 -1.27,0.7 -2.55,1.39 -3.82,2.09 -2.92,1.6 -5.82,3.21 -8.72,4.85 -1.84,1.02 -3.7,2.01 -5.6,2.93 -3.99,2.03 -3.99,2.03 -6.13,5.78 -0.36,2.53 -0.45,4.98 -0.48,7.53 -0.1,1.9 -0.22,3.79 -0.34,5.68 -0.1,1.44 -0.1,1.44 -0.2,2.91 -1.37,14.6 -6.97,27.8 -13.3,40.8 -0.99,2.07 -1.97,4.14 -2.96,6.2 -1.5,3.16 -3.01,6.31 -4.53,9.45 -0.46,0.94 -0.91,1.88 -1.38,2.86 -0.41,0.84 -0.82,1.68 -1.25,2.55 -0.95,1.74 -0.95,1.74 -0.88,2.94 0.9,-0.01 1.8,-0.02 2.72,-0.03 25.1,-0.19 49.1,2.65 71,15.9 2.41,1.4 2.41,1.4 6.23,1.1 2.65,-1.12 2.65,-1.12 5.45,-2.71 1.06,-0.58 2.13,-1.16 3.23,-1.76 1.14,-0.63 2.28,-1.26 3.45,-1.9 1.18,-0.65 2.36,-1.3 3.54,-1.94 3.45,-1.89 6.89,-3.79 10.3,-5.69 0.89,-0.49 1.78,-0.98 2.69,-1.48 5.12,-2.82 10.2,-5.67 15.3,-8.52 9.96,-5.57 20,-11.1 30,-16.5 9.32,-5.04 18.6,-10.1 27.9,-15.3 1.46,-0.82 2.92,-1.63 4.38,-2.44 13.3,-7.33 24.8,-14.7 31.8,-28.8 0.58,-1.14 0.58,-1.14 1.18,-2.31 5.94,-12.4 7.17,-27.9 2.85,-41.1 -3.86,-9.77 -8.53,-17.2 -16,-24.6 -0.56,-0.57 -1.13,-1.15 -1.71,-1.74 -10.5,-9.88 -24.8,-13.8 -38.9,-13.7 -20,0.75 -38.2,14.1 -55.1,23.7 z m 196,76.7 c -0.91,0.48 -1.82,0.97 -2.75,1.47 -11.4,6.07 -22.7,12.3 -33.9,18.9 -3.98,2.33 -7.97,4.54 -12.1,6.55 -5.77,2.79 -11.3,5.95 -16.9,9.12 -8.51,4.85 -17.1,9.57 -25.7,14.2 -8.6,4.63 -17.2,9.3 -25.8,14.1 -5.65,3.16 -11.3,6.28 -17,9.4 -29.1,16 -29.1,16 -57.9,32.3 0.51,0.89 1.02,1.77 1.54,2.68 15.5,27.7 22.2,61.2 13.5,92.3 -2.79,9.72 -6.07,18.9 -10.9,27.8 -1.25,2.08 -1.25,2.08 -1.1,4.19 4.19,-1.28 7.84,-2.87 11.6,-5.02 1.08,-0.6 2.15,-1.21 3.26,-1.83 1.14,-0.65 2.29,-1.29 3.47,-1.96 2.43,-1.37 4.86,-2.73 7.3,-4.09 0.61,-0.35 1.23,-0.69 1.86,-1.05 5.97,-3.35 12,-6.61 18,-9.86 7.44,-4.02 14.9,-8.07 22.2,-12.2 8.23,-4.6 16.5,-9.14 24.8,-13.7 1.26,-0.69 2.52,-1.39 3.79,-2.09 0.94,-0.52 0.94,-0.52 1.91,-1.05 4.4,-2.43 8.81,-4.86 13.2,-7.3 2.45,-1.35 4.9,-2.7 7.34,-4.06 0.61,-0.33 1.21,-0.66 1.83,-1.01 8.22,-4.54 16.5,-9.03 24.7,-13.5 7.68,-4.13 15.3,-8.36 22.9,-12.7 8.66,-4.94 17.4,-9.69 26.2,-14.4 11.7,-6.23 11.7,-6.23 23.2,-12.7 3.79,-2.16 7.62,-4.27 11.5,-6.35 2.59,-1.4 5.17,-2.81 7.76,-4.21 1.28,-0.7 2.57,-1.39 3.85,-2.07 17.1,-9.17 30.8,-20.2 37.3,-39.2 4.23,-16.3 2.28,-32.1 -6.1,-46.7 -9.01,-13.8 -22,-22.7 -38,-26.4 -17,-2.83 -30.3,2.41 -45,10.3 z m -12.5,193 c -2.82,1.52 -5.64,3.02 -8.47,4.52 -11.5,6.12 -22.9,12.4 -34.2,18.8 -8.29,4.71 -16.7,9.21 -25.1,13.7 -7.31,3.89 -14.6,7.82 -21.8,11.9 -5.93,3.37 -11.9,6.61 -18,9.85 -6.59,3.56 -13.2,7.12 -19.7,10.8 -7.3,4.14 -14.6,8.2 -22,12.2 -0.61,0.34 -1.23,0.68 -1.86,1.03 -6.46,3.56 -12.9,7.12 -19.4,10.7 -2.59,1.43 -5.18,2.85 -7.77,4.28 l -3.66,2.01 c -7.06,3.88 -14.1,7.83 -21,11.9 -3.17,1.83 -6.41,3.49 -9.7,5.09 -5.39,3.99 -7.87,11.2 -10.6,17.1 -0.98,2.08 -1.96,4.15 -2.95,6.23 -0.53,1.13 -1.07,2.27 -1.62,3.43 -3.2,6.74 -6.48,13.4 -9.74,20.2 -0.72,1.49 -1.45,2.99 -2.17,4.48 -6.24,12.8 -12.5,25.6 -18.7,38.5 -5.24,10.8 -10.5,21.5 -15.7,32.3 -0.53,1.08 -0.53,1.08 -1.06,2.17 -3.13,6.45 -6.26,12.9 -9.39,19.3 -8.25,17 -16.5,34 -24.8,51 -0.63,1.28 -0.63,1.28 -1.27,2.59 -1.69,3.46 -3.38,6.92 -5.06,10.4 -15.8,32.3 -15.8,32.3 -31.4,64.6 -5.9,12.2 -11.9,24.4 -17.8,36.6 -5.75,11.8 -11.5,23.5 -17.2,35.3 -4.89,10.1 -9.79,20.1 -14.7,30.2 -3.54,7.26 -7.08,14.5 -10.6,21.8 -1.06,2.18 -2.12,4.37 -3.19,6.55 -1.87,3.83 -3.73,7.67 -5.59,11.5 -0.82,1.69 -0.82,1.69 -1.65,3.4 -0.74,1.52 -0.74,1.52 -1.48,3.06 -0.43,0.87 -0.85,1.75 -1.29,2.64 -1.02,2.02 -1.02,2.02 -0.89,4.09 4.31,-1.61 8.33,-3.65 12.4,-5.81 1.1,-0.59 1.1,-0.59 2.22,-1.18 7.2,-3.85 14.3,-7.89 21.4,-11.9 6.95,-3.95 14,-7.79 21,-11.6 7.77,-4.18 15.5,-8.44 23.1,-12.8 8.98,-5.12 18,-10 27.2,-14.9 15.1,-8.02 30.1,-16.2 44.9,-24.9 4.92,-2.87 9.9,-5.63 14.9,-8.35 5.11,-2.78 10.2,-5.62 15.3,-8.45 12.7,-7.06 25.4,-14.1 38.1,-21.1 4.32,-2.38 8.63,-4.76 13,-7.15 12.4,-6.87 24.9,-13.7 37.4,-20.4 6.1,-3.29 12.2,-6.65 18.2,-10.1 5.49,-3.1 11,-6.11 16.6,-9.12 7.65,-4.15 15.2,-8.38 22.8,-12.7 8.82,-5.01 17.7,-9.88 26.6,-14.7 6.79,-3.66 13.5,-7.42 20.2,-11.2 9.1,-5.19 18.3,-10.2 27.5,-15.1 9.16,-4.87 18.2,-9.9 27.2,-15 5.71,-3.25 11.5,-6.37 17.3,-9.38 6.26,-3.27 12.1,-6.78 17.7,-11.1 0.71,-0.53 1.41,-1.06 2.13,-1.6 10.2,-8.19 17,-21.5 18.9,-34.4 1.12,-17.5 -2.54,-31.5 -13.1,-45.8 -0.63,-0.71 -1.26,-1.42 -1.91,-2.16 h -2 l -1,-3 c -12.6,-11.2 -28.4,-15 -44.8,-14.2 -17.7,1.41 -35.2,14.6 -50.2,23.1 -7.13,4.06 -14.3,7.98 -21.6,11.8 -9.43,5.05 -18.8,10.2 -28.2,15.3 -0.61,0.33 -1.22,0.67 -1.85,1.02 -8.89,4.9 -17.7,9.91 -26.5,15 -5.07,2.91 -10.2,5.6 -15.5,8.15 -4.74,2.43 -9.35,5.08 -14,7.72 -9.59,5.46 -19.2,10.8 -29,16 -5,2.67 -9.98,5.36 -14.9,8.19 -0.83,0.48 -1.66,0.95 -2.52,1.44 -1.52,0.88 -3.04,1.77 -4.55,2.67 -4.83,2.77 -4.83,2.77 -7.44,2.69 -2.98,-1.4 -3.72,-3.41 -5.23,-6.3 -0.59,-1.12 -1.18,-2.23 -1.79,-3.38 -0.62,-1.19 -1.23,-2.38 -1.84,-3.57 -0.6,-1.14 -1.2,-2.27 -1.82,-3.44 -3.87,-7.36 -7.62,-14.8 -11.3,-22.2 0.76,-0.42 1.52,-0.83 2.3,-1.26 3.59,-1.97 7.18,-3.95 10.8,-5.93 0.66,-0.36 1.32,-0.72 2,-1.1 8.53,-4.7 17,-9.45 25.5,-14.3 9,-5.12 18.1,-10 27.2,-14.9 8.95,-4.76 17.8,-9.67 26.6,-14.7 7.14,-4.05 14.3,-7.97 21.6,-11.8 8.23,-4.4 16.4,-8.88 24.5,-13.5 9.19,-5.23 18.5,-10.3 27.8,-15.3 8.29,-4.44 16.5,-9.04 24.7,-13.7 6.14,-3.48 12.3,-6.84 18.6,-10.1 5.83,-3.06 11.6,-6.3 17.3,-9.56 8.66,-4.94 17.4,-9.7 26.2,-14.4 8.91,-4.74 17.8,-9.54 26.6,-14.5 0.9,-0.5 1.8,-1.01 2.72,-1.52 17.6,-10 31.9,-19.4 38,-39.8 3.76,-14.6 2.86,-30.5 -4.43,-43.8 -8.96,-14.4 -21.4,-24.7 -38.1,-28.6 -16.1,-2.89 -29.2,0.75 -43.3,8.41 z"
         fill="#000100"
         id="path1-6" /><path
         transform="translate(1438,182)"
         d="m 0,0 c 8.54,5.69 14.2,12.4 17,22.3 1.05,9.66 -0.11,17.6 -5.81,25.5 -4.84,5.77 -10.4,9.96 -16.6,14.1 -3.87,2.56 -7.56,5.34 -11.3,8.14 -7.92,5.99 -16,11.8 -24,17.6 -2.27,1.64 -4.55,3.29 -6.82,4.93 -7.99,5.79 -16,11.5 -24.1,17.2 -6,4.22 -11.9,8.51 -17.9,12.8 -5.05,3.66 -10.1,7.29 -15.2,10.9 -3.23,2.3 -6.45,4.62 -9.66,6.96 -7.24,5.27 -14.5,10.5 -21.9,15.5 -0.6,0.41 -1.19,0.82 -1.81,1.24 -8.57,5.74 -17.9,6.41 -27.9,5.07 -9.91,-2.98 -16.6,-9.09 -21.4,-18.1 -3.12,-7.81 -2.82,-17.4 -0.06,-25.3 5.38,-11.2 15.2,-17.3 25.2,-24 3.89,-2.68 7.7,-5.46 11.5,-8.23 1.51,-1.1 3.02,-2.19 4.54,-3.29 0.72,-0.52 1.45,-1.05 2.19,-1.59 3.58,-2.58 7.17,-5.13 10.8,-7.69 4.72,-3.37 9.43,-6.78 14.1,-10.2 6.56,-4.75 13.2,-9.45 19.8,-14.1 5.93,-4.17 11.8,-8.41 17.7,-12.7 5.71,-4.14 11.5,-8.21 17.2,-12.2 5.52,-3.89 10.9,-7.89 16.4,-11.9 30.4,-22.5 30.4,-22.5 48.1,-13 z"
         fill="#000100"
         id="path2-2" /><path
         transform="translate(1284,3)"
         d="M 0,0 C 8.3,4.68 13.6,10.2 16.8,19.2 21.01,36.7 10.47,53.8 3.5,69.3 l -2.55,5.73 c -1.28,2.89 -2.57,5.77 -3.85,8.66 -3.76,8.43 -7.47,16.9 -11.2,25.4 -1.12,2.58 -2.25,5.16 -3.38,7.73 -0.52,1.21 -1.05,2.42 -1.59,3.66 -2.77,6.32 -5.55,12.6 -8.33,19 -2.63,5.96 -5.25,11.9 -7.85,17.9 -0.64,1.45 -1.27,2.91 -1.9,4.36 -0.94,2.14 -1.87,4.28 -2.8,6.41 -12,27.6 -12,27.6 -25.1,33 -2.91,1.02 -5.49,1.69 -8.57,1.9 -1.24,0.08 -2.47,0.16 -3.75,0.25 -8.54,-0.13 -16.2,-3.27 -22.3,-9.26 -6.51,-6.97 -10.5,-14 -10.2,-23.8 1.52,-12.2 7.92,-23.9 12.9,-34.9 0.85,-1.9 1.7,-3.8 2.55,-5.71 l 5.25,-11.8 c 3.94,-8.82 7.82,-17.7 11.7,-26.5 0.75,-1.69 1.49,-3.37 2.23,-5.06 5.96,-13.6 11.9,-27.2 17.8,-40.8 1.61,-3.7 3.22,-7.4 4.84,-11.1 0.69,-1.58 1.37,-3.15 2.06,-4.72 1.07,-2.46 2.14,-4.92 3.22,-7.37 0.33,-0.75 0.65,-1.5 0.99,-2.27 3.2,-7.26 6.98,-13.5 13.7,-17.9 0.66,-0.44 1.33,-0.89 2.01,-1.35 9.69,-5.74 20.5,-5.57 30.5,-0.65 z"
         fill="#000100"
         id="path3" /><path
         transform="translate(1056,8.69)"
         d="m 0,0 c 5.94,4.75 9.8,11 11.8,18.3 0.28,3.5 0.26,6.99 0.24,10.5 0,1.05 0.01,2.09 0.01,3.17 0,3.49 -0.01,6.97 -0.02,10.5 v 7.4 c 0,5.21 -0.01,10.4 -0.02,15.6 -0.02,6.5 -0.02,13 -0.02,19.5 0,16.4 -0.07,32.9 -0.19,49.3 -0.01,1.26 -0.02,2.52 -0.03,3.81 -0.06,7.36 -0.14,14.7 -0.25,22.1 -0.03,2.26 -0.05,4.52 -0.08,6.78 -0.03,3.11 -0.08,6.22 -0.13,9.33 -0.01,0.9 -0.02,1.8 -0.02,2.73 -0.21,9.3 -3.42,17.2 -9.49,24.3 -7.41,6.23 -15.9,9.56 -25.7,8.79 -8.94,-1.31 -15.4,-4.91 -21.3,-11.8 -6.16,-8.62 -7.29,-15.7 -7.24,-26.2 0,-1.24 -0.01,-2.47 -0.01,-3.73 0,-3.38 0,-6.75 0.01,-10.1 0.01,-3.58 0.01,-7.15 0.01,-10.7 0,-6.02 0.01,-12 0.02,-18.1 0.02,-6.11 0.03,-12.2 0.02,-18.3 0,-19.6 0.05,-39.2 0.19,-58.8 0.01,-1.07 0.01,-2.15 0.02,-3.25 0.04,-5.38 0.1,-10.8 0.2,-16.1 0.03,-1.46 0.05,-2.92 0.06,-4.38 0.12,-11.2 1.93,-20.2 9.8,-28.5 12.6,-11.5 28.4,-11.4 42.2,-2.07 z"
         fill="#000100"
         id="path4" /></g></g><g
     id="g3"
     transform="translate(-7.4826288,-0.6109963)"><rect
       style="fill:#afffb4;fill-opacity:0;stroke:#000000;stroke-width:1.4621;stroke-opacity:1"
       id="rect3"
       width="83.247383"
       height="83.247383"
       x="237.31708"
       y="132.9873" /></g><path
     d="m 270.43904,138.21287 c 0.15191,0.14831 0.29131,0.29925 0.42364,0.46478 0.16739,0.20666 0.33806,0.40961 0.50966,0.61254 0.1688,0.19543 0.3348,0.39229 0.49565,0.59383 0.18049,0.22162 0.36985,0.43344 0.56109,0.64526 0.21089,0.22958 0.41336,0.46571 0.61254,0.70605 0.22444,0.26745 0.45543,0.52838 0.69203,0.78086 0.18609,0.20013 0.35864,0.40961 0.52836,0.62189 0.10754,0.12948 0.22305,0.24643 0.34369,0.36332 0.1118,0.11131 0.21414,0.23051 0.31748,0.35022 0.0982,0.11311 0.19779,0.22444 0.29832,0.33525 0.12391,0.1375 0.24688,0.27541 0.36845,0.41522 0.13931,0.15993 0.28242,0.31703 0.42644,0.47226 0.17019,0.18517 0.33854,0.37173 0.505,0.56111 0.16457,0.18842 0.33385,0.37405 0.50031,0.56109 0.22303,0.24688 0.44513,0.49565 0.66397,0.74346 0.0972,0.11082 0.19591,0.22069 0.29505,0.33011 0.22537,0.25017 0.44794,0.50033 0.66397,0.75749 0.22162,0.25998 0.44372,0.51902 0.67332,0.77152 0.18795,0.2048 0.36424,0.41755 0.53772,0.63592 0.10984,0.13226 0.22396,0.25903 0.3404,0.38574 0.18797,0.20434 0.36471,0.41523 0.53772,0.63125 0.13472,0.1637 0.274,0.32263 0.41381,0.48161 0.22024,0.25249 0.43112,0.50967 0.63592,0.77618 0.14029,0.18096 0.28663,0.35584 0.43624,0.52837 0.30254,0.35163 0.57514,0.72475 0.84635,1.10351 0.0673,0.093 0.13505,0.18517 0.20339,0.27775 0.64526,0.87906 1.33729,1.82825 1.22975,2.9598 -0.21228,1.32795 -0.93985,2.58107 -1.66929,3.69392 -0.0557,0.0851 -0.11082,0.17067 -0.16505,0.25717 -0.22771,0.35863 -0.46291,0.71072 -0.69669,1.0661 -0.0313,0.0473 -0.0627,0.094 -0.0949,0.14258 -0.16786,0.25155 -0.33853,0.50031 -0.51434,0.74813 -1.22975,1.75811 -2.41741,3.55364 -3.40869,5.47073 -0.0182,0.0355 -0.037,0.0706 -0.0562,0.10706 -0.10983,0.21182 -0.21509,0.42551 -0.31795,0.6406 -0.0192,0.0398 -0.0383,0.0791 -0.058,0.11966 -1.09883,2.29583 -2.28182,5.61101 -1.48691,8.13596 0.0115,0.036 0.021,0.072 0.0317,0.10902 0.49564,1.6833 1.35133,3.30115 2.23506,4.81612 0.10247,0.17721 0.20246,0.35583 0.30252,0.53305 0.42924,0.76684 0.87907,1.51497 1.35133,2.25843 0.0922,0.14454 0.18376,0.28943 0.27446,0.43438 0.35677,0.57045 0.72475,1.13156 1.09883,1.68797 0.0576,0.0856 0.11458,0.17162 0.17207,0.25718 0.10902,0.1632 0.21789,0.32637 0.32731,0.49097 0.11884,0.17721 0.23706,0.35488 0.35536,0.53305 0.13472,0.202 0.27027,0.40305 0.40773,0.60318 0.0216,0.0309 0.043,0.0622 0.065,0.0944 0.8323,1.21104 1.70201,2.39403 2.59042,3.56767 0.0436,0.0575 0.0436,0.0575 0.0879,0.11638 0.34555,0.45682 0.69203,0.91179 1.05674,1.35599 0.0959,0.11737 0.16412,0.20714 0.21229,0.35209 -0.2843,-0.0804 -0.53773,-0.2193 -0.79958,-0.3535 -2.11348,-1.06608 -4.34385,-1.73006 -6.73321,-1.72069 h -0.13095 c -0.62189,0.002 -1.22975,0.0164 -1.84229,0.15469 -0.0426,0.01 -0.0846,0.0187 -0.12866,0.0281 -2.05737,0.46245 -3.89498,1.60381 -5.04992,3.39466 -1.07543,1.70201 -1.9171,3.9885 -1.46353,6.03185 0.32498,1.30922 1.15025,2.45013 1.87969,3.56297 0.26325,0.39933 0.51901,0.79958 0.77152,1.20638 0.058,0.093 0.11688,0.1861 0.17533,0.27916 0.035,0.0562 0.0702,0.11213 0.10526,0.16785 0.0295,0.0473 0.0594,0.0949 0.0897,0.14356 0.0622,0.11082 0.0622,0.11082 0.0622,0.20434 -0.19966,-0.0687 -0.35771,-0.17394 -0.52369,-0.29832 -0.0584,-0.0421 -0.11688,-0.0846 -0.17535,-0.12719 -0.0305,-0.0219 -0.0612,-0.0445 -0.0926,-0.0673 -0.15895,-0.11508 -0.31983,-0.22726 -0.48161,-0.33995 -0.99127,-0.70138 -1.96386,-1.42145 -2.90371,-2.18829 -0.10427,-0.0851 -0.21041,-0.1688 -0.31607,-0.25249 -0.46245,-0.36987 -0.90711,-0.7575 -1.3373,-1.16897 -0.14028,-0.13227 -0.28149,-0.26137 -0.42784,-0.38715 -0.2324,-0.202 -0.44888,-0.41942 -0.66398,-0.63592 -0.0403,-0.0398 -0.0804,-0.0799 -0.12211,-0.12113 -0.23286,-0.23333 -0.45591,-0.47226 -0.66864,-0.72476 -0.0445,-0.0506 -0.0889,-0.10149 -0.13325,-0.15191 -0.55175,-0.63123 -1.05674,-1.29052 -1.50562,-2.00125 -0.0262,-0.0411 -0.0262,-0.0411 -0.0534,-0.0828 -1.49628,-2.33792 -1.72072,-5.00316 -1.15961,-7.71514 0.0542,-0.24547 0.11639,-0.48628 0.18283,-0.72943 0.0147,-0.0539 0.0147,-0.0539 0.03,-0.10902 0.22116,-0.78554 0.58448,-1.57575 1.14089,-2.18361 0.0313,-0.0378 0.0627,-0.0758 0.0954,-0.11508 0.79957,-0.94453 1.92177,-1.38404 3.10008,-1.64589 0.0599,-0.0131 0.0599,-0.0131 0.12064,-0.0267 1.04738,-0.22071 2.11815,-0.28897 3.18425,-0.37594 0.71073,-0.058 1.41211,-0.12015 2.11815,-0.22023 0.0511,-0.007 0.10198,-0.0147 0.15436,-0.0219 0.77152,-0.11507 1.53368,-0.29692 2.27246,-0.5424 0.12998,-0.0411 0.12998,-0.0411 0.22351,-0.0411 -0.19825,-0.23847 -0.411,-0.46011 -0.63123,-0.678 -0.18891,-0.18704 -0.37174,-0.37501 -0.5424,-0.57981 -0.11737,-0.13554 -0.2394,-0.267 -0.36191,-0.39885 -0.35162,-0.38015 -0.6967,-0.76216 -1.024,-1.16429 -0.0997,-0.12064 -0.20341,-0.23659 -0.30955,-0.35161 -0.1847,-0.20341 -0.3549,-0.41523 -0.52369,-0.63126 -0.17301,-0.22255 -0.35163,-0.43951 -0.53305,-0.65461 -0.28569,-0.3446 -0.55643,-0.69669 -0.82295,-1.05674 -0.0912,-0.12342 -0.18377,-0.24595 -0.27633,-0.36846 -0.99128,-1.3139 -1.92178,-2.67457 -2.78681,-4.07264 -0.0182,-0.0295 -0.036,-0.0584 -0.0547,-0.0889 -3.25439,-5.2837 -3.25439,-5.2837 -2.80551,-7.34107 0.1267,-0.46759 0.33947,-0.89308 0.57045,-1.31858 0.021,-0.0398 0.0426,-0.08 0.064,-0.12114 0.30067,-0.56579 0.61722,-1.11753 0.96324,-1.65525 0.0335,-0.0529 0.0673,-0.10575 0.101,-0.15845 0.0869,-0.13554 0.17441,-0.2712 0.26186,-0.40632 0.0612,-0.0949 0.12195,-0.18938 0.18328,-0.28429 0.45496,-0.70606 0.92114,-1.40276 1.38873,-2.09947 0.0206,-0.0308 0.0408,-0.0617 0.0622,-0.093 0.0408,-0.0612 0.0813,-0.12195 0.12211,-0.18283 0.27961,-0.41848 0.55641,-0.83696 0.83228,-1.2578 0.0192,-0.0285 0.038,-0.0575 0.0576,-0.0869 1.3747,-2.10414 2.70732,-4.22697 3.76872,-6.49943 0.0219,-0.0463 0.0435,-0.0922 0.066,-0.13979 0.0211,-0.0448 0.0421,-0.0902 0.064,-0.13652 0.0187,-0.0403 0.0375,-0.0804 0.057,-0.12163 0.0897,-0.22396 0.0997,-0.43344 0.0997,-0.67332 v -0.0954 c 4.7e-4,-0.10427 4.7e-4,-0.20854 0,-0.31282 0,-0.0733 0,-0.14634 4.7e-4,-0.21976 0,-0.15387 0,-0.30767 -4.7e-4,-0.4615 -4.7e-4,-0.19451 0,-0.38903 0,-0.58448 4.7e-4,-0.15158 4.7e-4,-0.303 0,-0.4545 0,-0.072 0,-0.14356 4.7e-4,-0.21509 4.8e-4,-0.68267 -0.0147,-1.36067 -0.13226,-2.03399 -0.008,-0.0473 -0.0164,-0.0944 -0.0247,-0.14307 -0.37361,-2.08542 -1.13156,-4.06797 -1.8984,-6.03183 -0.23192,-0.59383 -0.46009,-1.19233 -0.68267,-1.79084 -0.0115,-0.0327 -0.0244,-0.066 -0.037,-0.0997 -0.0552,-0.14962 -0.11033,-0.29925 -0.16506,-0.44888 -0.0383,-0.10428 -0.0768,-0.20901 -0.11556,-0.31328 -0.0174,-0.0463 -0.0345,-0.093 -0.0524,-0.14078 -0.0147,-0.0403 -0.03,-0.0804 -0.0453,-0.12211 -0.0319,-0.0967 -0.0319,-0.0967 -0.0319,-0.19031 z"
     fill="#000100"
     id="path1-8"
     style="stroke-width:0.0467584" /></svg>
